<?xml version="1.0" encoding="utf-8"?>
<!-- Generator: Adobe Illustrator 25.2.0, SVG Export Plug-In . SVG Version: 6.00 Build 0)  -->
<svg version="1.1" id="Layer_1" xmlns="http://www.w3.org/2000/svg" xmlns:xlink="http://www.w3.org/1999/xlink" x="0px" y="0px"
	 viewBox="0 0 799.4 799.4" style="enable-background:new 0 0 799.4 799.4;" xml:space="preserve">
<style type="text/css">
	.st0{fill:#FFFFFF;}
	.st1{fill:#020202;}
	.st2{fill:#EE938B;}
	.st3{fill:#E8525F;}
	.st4{fill:#D16363;}
</style>
<g>
	<circle class="st0" cx="399.7" cy="397.4" r="386.3"/>
	<g>
		<g>
			<path class="st1" d="M617.9,387.8c26.2-152.6-36.6-346.6-209.5-357.7c-55.1-3.5-109,16.7-136.8,55.8
				c-95.4,37.6-103.4,205.1-92.7,262.7c29.2,158-111.7,130.8-75.9,279.2l294.4-16.2h11.3l289.2,3.7C722.2,503.4,606,511,617.9,387.8
				z"/>
			<rect x="315" y="368.7" class="st2" width="173.7" height="221.5"/>
			<g>
				<path class="st3" d="M732.3,594c-81.7-34.3-242.6-47.1-242.6-47.1c-57.3,48.2-129.7,47.9-174.7,0c0,0-164.9,13.5-250.1,43.4
					c60.9,108.2,188.4,191.6,319.9,197.6c5.9,0.2,11.8,0.4,17.7,0.4C537.8,788,667.7,702.3,732.3,594z"/>
			</g>
			<g>
				<path class="st0" d="M555.6,342c-6.5,0-11.7,9.3-11.7,20.9c0,11.5,5.2,20.9,11.7,20.9s11.7-9.3,11.7-20.9S562,342,555.6,342z
					 M555.6,374.5c-4.5,0-8.1-6.4-8.1-14.4c0-7.9,3.6-14.4,8.1-14.4s8.1,6.4,8.1,14.4C563.6,368.1,560,374.5,555.6,374.5z"/>
				<path class="st0" d="M235.9,362.8c0,11.5,5.2,20.9,11.7,20.9s11.7-9.3,11.7-20.9c0-11.5-5.2-20.9-11.7-20.9
					S235.9,351.3,235.9,362.8z M239.5,360.2c0-7.9,3.6-14.4,8.1-14.4s8.1,6.4,8.1,14.4c0,7.9-3.6,14.4-8.1,14.4
					C243.1,374.5,239.5,368.1,239.5,360.2z"/>
				<g>
					<path class="st2" d="M401.6,100.5L401.6,100.5L401.6,100.5L401.6,100.5L401.6,100.5c-111.9,0.1-137.4,84-135.1,168.4
						c0,60.9-0.4,105.7,5.3,120.8c5.6,15,44.9,105.6,129.8,105.7l0,0l0,0l0,0l0,0c84.9-0.2,124.1-90.7,129.8-105.7
						c5.6-15.1,5.3-59.9,5.3-120.8C539,184.4,513.6,100.6,401.6,100.5z"/>
				</g>
				<g>
					<path class="st4" d="M401.7,497.8c-33.3-0.1-63.3-13.6-89.2-40.2l3.6-3.5c25,25.6,53.8,38.6,85.7,38.7
						c31.3-0.1,59.8-12.7,84.5-37.5l3.5,3.5C464,484.6,434.4,497.7,401.7,497.8z"/>
				</g>
				<path class="st2" d="M271.5,265.9c0,0-22.5-33.1-45.6-13.8c-23.1,19.4-0.6,129.4,45.6,110C317.8,342.8,271.5,265.9,271.5,265.9z
					"/>
				<path class="st2" d="M532.2,265.9c0,0,22.5-33.1,45.6-13.8c23.1,19.4,0.6,129.4-45.6,110C486,342.8,532.2,265.9,532.2,265.9z"/>
				
					<rect x="264.1" y="327.9" transform="matrix(0.9973 -7.399071e-02 7.399071e-02 0.9973 -24.8525 20.6748)" class="st4" width="5" height="35.7"/>
				
					<rect x="517.3" y="341.3" transform="matrix(7.426252e-02 -0.9972 0.9972 7.426252e-02 154.2853 853.7321)" class="st4" width="39.4" height="5"/>
				<path class="st4" d="M237.4,309.1c-5.3-17.6-5.4-29.9-0.1-36.5c3.9-4.9,9.2-4.6,9.4-4.6l-0.3,5l0.2-2.5l-0.1,2.5
					c-0.1,0-3.1-0.1-5.3,2.8c-2.3,3-5.2,11,1.1,31.8L237.4,309.1z"/>
				<path class="st4" d="M568.2,309.1l-4.8-1.4c6.3-20.8,3.4-28.9,1.1-31.8c-2.2-2.9-5.2-2.8-5.3-2.8l-0.3-5c0.2,0,5.5-0.3,9.4,4.6
					C573.6,279.2,573.5,291.5,568.2,309.1z"/>
				<path class="st0" d="M257.4,368.3c-0.8,0-1.6-0.1-2.4-0.3c-0.2-0.1-0.4-0.2-0.6-0.3c-1.4,4.1-3.9,6.9-6.9,6.9
					c-4.5,0-8.1-6.4-8.1-14.4c0-7.9,3.6-14.3,8-14.3c2.7-0.3,2-4,0-3.9c-6.4,0.1-11.7,9.4-11.7,20.8c0,11.5,5.2,20.9,11.7,20.9
					c5.4,0,9.9-6.6,11.3-15.4C258.4,368.3,257.9,368.3,257.4,368.3z"/>
				<path class="st0" d="M555.6,342c-2-0.1-2.7,3.6,0,3.9c4.4,0.1,8,6.5,8,14.3c0,7.9-3.6,14.4-8.1,14.4c-2.5,0-4.7-2.1-6.1-5.2
					c-0.4,0.3-0.8,0.7-1.3,1c-1,0.6-2,1.2-3,1.8c1.9,6.9,5.8,11.6,10.4,11.6c6.5,0,11.7-9.3,11.7-20.9
					C567.3,351.3,562.1,342,555.6,342z"/>
				<path class="st1" d="M265.9,259.2c-1-59.3,43.2-90.1,43.2-90.1c39.8,69.8,149.7,93.6,250,58.9c0,0-9.7-167.8-166.5-158
					C235.9,79.8,265.9,259.2,265.9,259.2z"/>
			</g>
		</g>
	</g>
</g>
</svg>
