<svg id="Layer_1" data-name="Layer 1" xmlns="http://www.w3.org/2000/svg" viewBox="0 0 799.41 799.41"><defs><style>.cls-1{fill:#fff;}.cls-2{fill:#08bd80;}</style></defs><circle class="cls-1" cx="399.7" cy="399.7" r="399.7"/><ellipse class="cls-2" cx="399.7" cy="334.23" rx="155.49" ry="201"/><path class="cls-2" d="M500,899.7c113.8,0,216.41-47.64,289.21-124C750.27,703.1,635.53,650.46,500,650.46S249.73,703.1,210.79,775.74C283.59,852.06,386.2,899.7,500,899.7Z" transform="translate(-100.3 -100.3)"/><rect class="cls-2" x="329.5" y="399.7" width="140.41" height="253.83" rx="9.62"/><path class="cls-2" d="M662.16,617.58c26.5-45.66,42.29-102.79,42.29-164.82C704.45,303.21,612.91,182,500,182S295.55,303.21,295.55,452.76c0,62,15.79,119.16,42.29,164.82Z" transform="translate(-100.3 -100.3)"/></svg>