<svg id="Layer_1" data-name="Layer 1" xmlns="http://www.w3.org/2000/svg" viewBox="0 0 799 799"><defs><style>.cls-1{fill:#fff;}.cls-2{fill:#08bd80;}</style></defs><circle class="cls-1" cx="500" cy="540.5" r="399.5" transform="translate(-336.24 370.86) rotate(-45)"/><ellipse class="cls-2" cx="399.5" cy="348.41" rx="155.41" ry="215.25"/><path class="cls-2" d="M497.55,690.89c-130.09,0-246.38,31.17-323.72,80.14C246.19,873.22,365.26,940,500,940c133.79,0,252.13-65.83,324.63-166.8C747.32,723,629.54,690.89,497.55,690.89Z" transform="translate(-100.5 -141)"/><rect class="cls-2" x="316.46" y="399.5" width="166.07" height="253.71" rx="9.62"/><path class="cls-2" d="M369.13,501.64c4.65,34.51-3,64.43-17.11,66.83s-29.31-23.63-34-58.14,3-64.43,17.12-66.83S364.48,467.13,369.13,501.64Z" transform="translate(-100.5 -141)"/><path class="cls-2" d="M630.87,501.64c-4.65,34.51,3,64.43,17.11,66.83s29.31-23.63,34-58.14-3-64.43-17.12-66.83S635.52,467.13,630.87,501.64Z" transform="translate(-100.5 -141)"/><path class="cls-2" d="M350,480.94q-7.83-51.68-15.67-103.37c-1.9-12.51-3.73-25.69.83-37.49s18-21.2,29.82-16.77c-4.75-24,21.77-41.67,44.88-49.62,38.71-13.33,80.23-20.12,120.85-14.87S611,282,638.37,312.48c8.67,9.64,16.13,20.59,20.26,32.88,8,23.64,2.89,49.44-2.23,73.85l-12.21,58.18c-.93,4.43-2,9.08-5,12.44-4.82,5.37-12.94,5.77-20.15,5.79l-231.19.5c-14.49,0-33.4-3.54-35.32-17.91" transform="translate(-100.5 -141)"/></svg>