<?xml version="1.0" encoding="utf-8"?>
<!-- Generator: Adobe Illustrator 25.2.0, SVG Export Plug-In . SVG Version: 6.00 Build 0)  -->
<svg version="1.1" id="Layer_1" xmlns="http://www.w3.org/2000/svg" xmlns:xlink="http://www.w3.org/1999/xlink" x="0px" y="0px"
	 viewBox="0 0 799 799" style="enable-background:new 0 0 799 799;" xml:space="preserve">
<style type="text/css">
	.st0{fill:#08BD80;}
	.st1{fill:#EE938B;}
	.st2{fill:#D16363;}
	.st3{fill:#FFFFFF;}
	.st4{fill:#8FA5E8;}
	.st5{fill:#6682C0;}
</style>
<ellipse class="st0" cx="398" cy="399.6" rx="388.3" ry="387"/>
<g>
	<g>
		<rect x="293.5" y="384.2" class="st1" width="211.9" height="212.9"/>
		<g>
			<path class="st1" d="M584.7,234.7C574.3,209.8,553,222,553,222c12.3-113-45.4-187.6-153.5-187.6S233.7,109,246,222
				c0,0-21.3-12.2-31.7,12.7c-10.4,24.9,8.6,83.2,20.4,101.7c11.8,18.5,32.7,14.2,32.7,14.2s1.4,39.2,6.8,53.7
				c5.4,14.5,43.3,101.6,125.4,101.6s119.9-87.1,125.4-101.6c5.4-14.5,6.8-55.2,6.8-55.2s20.9,6,32.7-12.6
				C576.1,317.9,595.2,259.6,584.7,234.7z"/>
			<path class="st2" d="M399.5,508.2c-51.5,0-99.2-55.1-108.2-66.2l3.7-3c8.8,10.8,55.1,64.4,104.5,64.4
				c49.7,0,95.5-52.9,104.1-63.5l3.7,3C498.4,453.9,451.4,508.2,399.5,508.2z"/>
			
				<rect x="263.9" y="320.4" transform="matrix(0.9978 -6.676892e-02 6.676892e-02 0.9978 -21.8087 18.5319)" class="st2" width="4.8" height="30.2"/>
			<polygon class="st2" points="534,349.2 529.3,348.8 531.6,320.3 536.3,320.7 			"/>
			<path class="st2" d="M228.5,290.8c-6.9-26.5-5.8-42.8,3.4-51.3l3.3,3.5c-7.7,7.1-8.4,22.3-2,46.6L228.5,290.8z"/>
			<path class="st2" d="M571.6,290.8l-4.7-1.2c6.3-24.3,5.7-39.5-2-46.6l3.3-3.5C577.5,247.9,578.6,264.3,571.6,290.8z"/>
			<path d="M573.7,116.9c-40-32.2-80-64.4-110.9-72.2c-18.6-6.7-39.7-10.3-63.3-10.3c-73.5,0-135,22.5-144.4,92
				c-33.5,14.1-27.3,68.5-20.2,92.6c0,0,5.7-0.1,11.2,3v0c14.3,9.3,17.6,34.5,15.3,59.4c32.1,0.2,7.8-103,33-128
				c95.3,59.8,222.4,28.3,222.4,28.3c3.6,39-1.7,99.9,20.9,99.7c-2.2-23.9-2.3-50,15.3-59.4l0,0c2.5-22.6,2.1-43.7-0.9-62.9
				C563.2,148.7,572.8,134.6,573.7,116.9z"/>
			<g>
				<path class="st3" d="M317.5,349.5c-36.6,0-66.4-29.7-66.4-66.2c0-36.5,29.8-66.2,66.4-66.2c36.6,0,66.4,29.7,66.4,66.2
					C383.9,319.8,354.1,349.5,317.5,349.5z M317.5,221.9c-34,0-61.6,27.6-61.6,61.4c0,33.9,27.6,61.4,61.6,61.4
					c34,0,61.6-27.6,61.6-61.4C379.1,249.4,351.5,221.9,317.5,221.9z"/>
				<path class="st3" d="M481.5,349.5c-36.6,0-66.4-29.7-66.4-66.2c0-36.5,29.8-66.2,66.4-66.2c36.6,0,66.4,29.7,66.4,66.2
					C547.9,319.8,518.1,349.5,481.5,349.5z M481.5,221.9c-34,0-61.6,27.6-61.6,61.4c0,33.9,27.6,61.4,61.6,61.4
					c34,0,61.6-27.6,61.6-61.4C543.1,249.4,515.5,221.9,481.5,221.9z"/>
				<path class="st3" d="M417.9,269c-6.8-6.3-14.6-9.4-22-8.7c-5.9,0.5-10.9,3.4-14.5,8.3l-3.9-2.8c4.4-5.9,10.8-9.6,17.9-10.3
					c8.7-0.8,17.9,2.7,25.7,9.9L417.9,269z"/>
			</g>
		</g>
		<path class="st4" d="M724.7,608.9c-100.9-44.9-219-53.5-219-53.5c-50.5,52.5-167.5,53.2-212.2,0c0,0-119.1,12.1-220,57
			c62.7,102.7,190.6,175.1,326,175.1C534.2,787.4,662,711.6,724.7,608.9z"/>
		<path class="st5" d="M396.1,625.9c-58.5,0-109.3-24-141.7-61.4l3.6-3.1c58.4,67.5,178.4,90,294.7,2.3l2.9,3.8
			C501.2,608.6,445.8,625.9,396.1,625.9z"/>
	</g>
</g>
</svg>
